<?xml version="1.0" encoding="UTF-8" standalone="no"?>
<svg
   height="13.81828"
   viewBox="0 0 14.665269 13.81828"
   width="14.665269"
   version="1.1"
   id="svg12"
   sodipodi:docname="library-symbolic.svg"
   inkscape:version="1.2.2 (b0a8486541, 2022-12-01)"
   xmlns:inkscape="http://www.inkscape.org/namespaces/inkscape"
   xmlns:sodipodi="http://sodipodi.sourceforge.net/DTD/sodipodi-0.dtd"
   xmlns="http://www.w3.org/2000/svg"
   xmlns:svg="http://www.w3.org/2000/svg">
  <defs
     id="defs16" />
  <sodipodi:namedview
     id="namedview14"
     pagecolor="#ffffff"
     bordercolor="#000000"
     borderopacity="0.25"
     inkscape:showpageshadow="2"
     inkscape:pageopacity="0.0"
     inkscape:pagecheckerboard="0"
     inkscape:deskcolor="#d1d1d1"
     showgrid="false"
     inkscape:zoom="52.4375"
     inkscape:cx="7.9904648"
     inkscape:cy="8.0095352"
     inkscape:window-width="1920"
     inkscape:window-height="1011"
     inkscape:window-x="0"
     inkscape:window-y="32"
     inkscape:window-maximized="1"
     inkscape:current-layer="svg12" />
  <g
     fill="#222222"
     id="g10"
     style="fill:#ffffff;fill-opacity:1"
     transform="translate(-1,-1.1826566)">
    <path
       d="m 1.5,2 h 2 C 3.777344,2 4,2.222656 4,2.5 v 12 C 4,14.777344 3.777344,15 3.5,15 h -2 C 1.222656,15 1,14.777344 1,14.5 V 2.5 C 1,2.222656 1.222656,2 1.5,2 Z m 0,0"
       id="path2"
       style="fill:#ffffff;fill-opacity:1" />
    <path
       d="m 5.5,4 h 1 C 6.777344,4 7,4.222656 7,4.5 v 10 C 7,14.777344 6.777344,15 6.5,15 h -1 C 5.222656,15 5,14.777344 5,14.5 V 4.5 C 5,4.222656 5.222656,4 5.5,4 Z m 0,0"
       id="path4"
       style="fill:#ffffff;fill-opacity:1" />
    <path
       d="m 8.5,3 h 1 C 9.777344,3 10,3.222656 10,3.5 v 11 C 10,14.777344 9.777344,15 9.5,15 h -1 C 8.222656,15 8,14.777344 8,14.5 V 3.5 C 8,3.222656 8.222656,3 8.5,3 Z m 0,0"
       id="path6"
       style="fill:#ffffff;fill-opacity:1" />
    <path
       d="m 10.707031,1.460938 0.964844,-0.261719 c 0.265625,-0.070313 0.539063,0.089843 0.613281,0.355469 l 3.363282,12.558593 c 0.07031,0.265625 -0.08594,0.539063 -0.351563,0.609375 l -0.96875,0.261719 c -0.265625,0.07031 -0.539063,-0.08984 -0.613281,-0.355469 L 10.351562,2.074219 C 10.28125,1.804688 10.4375,1.53125 10.707031,1.460938 Z m 0,0"
       id="path8"
       style="fill:#ffffff;fill-opacity:1" />
  </g>
</svg>
