<svg width="170" height="170" viewBox="0 0 170 170" fill="none" xmlns="http://www.w3.org/2000/svg">
<path d="M77.5 4.33013C82.141 1.65064 87.859 1.65064 92.5 4.33013L151.112 38.1699C155.753 40.8494 158.612 45.8013 158.612 51.1603V118.84C158.612 124.199 155.753 129.151 151.112 131.83L92.5 165.67C87.859 168.349 82.141 168.349 77.5 165.67L18.8878 131.83C14.2468 129.151 11.3878 124.199 11.3878 118.84V51.1603C11.3878 45.8013 14.2468 40.8494 18.8878 38.1699L77.5 4.33013Z" fill="black"/>
<path d="M72.8555 23.6739C73.7292 21.6448 76.0823 20.7083 78.1114 21.582L78.3979 21.7054C80.4269 22.5791 81.3635 24.9323 80.4898 26.9613L54.6762 86.9075L50.7158 85.2021C48.6868 84.3284 47.7502 81.9753 48.6239 79.9463L72.8555 23.6739Z" fill="white"/>
<path d="M80.7539 23.6791C79.8869 21.6472 77.5369 20.7028 75.505 21.5699L75.218 21.6923C73.1861 22.5593 72.2418 24.9093 73.1088 26.9412L120.255 137.432L124.221 135.74C126.253 134.873 127.197 132.523 126.33 130.491L80.7539 23.6791Z" fill="white"/>
<path d="M46.1976 50.9836C44.2051 50.0295 41.8164 50.8713 40.8624 52.8638L38.9999 56.7535L127.571 99.1635L129.433 95.2738C130.387 93.2813 129.546 90.8926 127.553 89.9386L46.1976 50.9836Z" fill="white"/>
</svg>
