<?xml version="1.0" encoding="UTF-8" standalone="no"?>
<svg
   height="16"
   viewBox="0 0 16 16"
   width="16"
   version="1.1"
   id="svg4"
   sodipodi:docname="external-link-symbolic.svg"
   inkscape:version="1.2.2 (b0a8486541, 2022-12-01)"
   xmlns:inkscape="http://www.inkscape.org/namespaces/inkscape"
   xmlns:sodipodi="http://sodipodi.sourceforge.net/DTD/sodipodi-0.dtd"
   xmlns="http://www.w3.org/2000/svg"
   xmlns:svg="http://www.w3.org/2000/svg">
  <defs
     id="defs8" />
  <sodipodi:namedview
     id="namedview6"
     pagecolor="#ffffff"
     bordercolor="#000000"
     borderopacity="0.25"
     inkscape:showpageshadow="2"
     inkscape:pageopacity="0.0"
     inkscape:pagecheckerboard="0"
     inkscape:deskcolor="#d1d1d1"
     showgrid="false"
     inkscape:zoom="52.4375"
     inkscape:cx="7.9904648"
     inkscape:cy="8.0095352"
     inkscape:window-width="1920"
     inkscape:window-height="1011"
     inkscape:window-x="0"
     inkscape:window-y="32"
     inkscape:window-maximized="1"
     inkscape:current-layer="svg4" />
  <path
     d="M 3,2 C 1.339844,2 0,3.339844 0,5 v 8 c 0,1.660156 1.339844,3 3,3 h 8 c 1.660156,0 3,-1.339844 3,-3 V 9 C 14,8.449219 13.550781,8 13,8 12.449219,8 12,8.449219 12,9 v 4 c 0,0.554688 -0.445312,1 -1,1 H 3 C 2.445312,14 2,13.554688 2,13 V 5 C 2,4.445312 2.445312,4 3,4 H 7 C 7.550781,4 8,3.550781 8,3 8,2.449219 7.550781,2 7,2 Z M 10,0 C 9.449219,0 9,0.449219 9,1 9,1.550781 9.449219,2 10,2 h 2.585938 L 7.292969,7.289062 c -0.390625,0.394532 -0.390625,1.027344 0,1.417969 0.390625,0.390625 1.023437,0.390625 1.414062,0 L 14,3.414062 V 6 c 0,0.550781 0.449219,1 1,1 0.550781,0 1,-0.449219 1,-1 V 1 C 16,0.914062 15.988281,0.828125 15.964844,0.742188 15.941406,0.65625 15.910156,0.574219 15.863281,0.5 15.820312,0.425781 15.769531,0.355469 15.707031,0.292969 15.691406,0.28125 15.675781,0.269531 15.660156,0.257812 15.605469,0.207031 15.542969,0.164062 15.476562,0.128906 15.441406,0.109375 15.402344,0.09375 15.363281,0.0820312 15.3125,0.0585938 15.261719,0.0429688 15.207031,0.03125 15.167969,0.0195312 15.125,0.015625 15.085938,0.0117188 15.054688,0.00390625 15.027344,0.00390625 15,0 Z m 0,0"
     fill="#222222"
     id="path2"
     style="fill:#ffffff;fill-opacity:1" />
</svg>
