<?xml version="1.0" encoding="UTF-8" standalone="no"?>
<svg
   height="15.638672"
   viewBox="0 0 14 15.638672"
   width="14"
   version="1.1"
   id="svg8"
   sodipodi:docname="user-home-symbolic.svg"
   inkscape:version="1.2.2 (b0a8486541, 2022-12-01)"
   xmlns:inkscape="http://www.inkscape.org/namespaces/inkscape"
   xmlns:sodipodi="http://sodipodi.sourceforge.net/DTD/sodipodi-0.dtd"
   xmlns="http://www.w3.org/2000/svg"
   xmlns:svg="http://www.w3.org/2000/svg">
  <defs
     id="defs12" />
  <sodipodi:namedview
     id="namedview10"
     pagecolor="#ffffff"
     bordercolor="#000000"
     borderopacity="0.25"
     inkscape:showpageshadow="2"
     inkscape:pageopacity="0.0"
     inkscape:pagecheckerboard="0"
     inkscape:deskcolor="#d1d1d1"
     showgrid="false"
     inkscape:zoom="52.4375"
     inkscape:cx="7.9904648"
     inkscape:cy="8.0095352"
     inkscape:window-width="1920"
     inkscape:window-height="1011"
     inkscape:window-x="0"
     inkscape:window-y="32"
     inkscape:window-maximized="1"
     inkscape:current-layer="svg8" />
  <g
     fill="#2e3436"
     id="g6"
     style="fill:#131416;fill-opacity:1"
     transform="translate(-1,-0.36132801)">
    <path
       d="m 12,16 c 1.660156,0 3,-1.339844 3,-3 V 7 C 15,6.070312 14.585938,5.1875 13.871094,4.589844 L 9.410156,0.871094 C 8.59375,0.191406 7.40625,0.191406 6.589844,0.871094 L 2.128906,4.589844 C 1.414062,5.1875 1,6.070312 1,7 v 6 c 0,1.660156 1.339844,3 3,3 z M 3,13 V 7 C 3,6.664062 3.148438,6.34375 3.410156,6.128906 l 4.460938,-3.71875 c 0.074218,-0.0625 0.183594,-0.0625 0.257812,0 l 4.460938,3.71875 C 12.851562,6.34375 13,6.664062 13,7 v 6 c 0,0.546875 -0.453125,1 -1,1 H 4 C 3.453125,14 3,13.546875 3,13 Z m 0,0"
       id="path2"
       style="fill:#131416;fill-opacity:1" />
    <path
       d="m 7,8 h 2 c 0.550781,0 1,0.449219 1,1 v 5 c 0,0.550781 -0.449219,1 -1,1 H 7 C 6.449219,15 6,14.550781 6,14 V 9 C 6,8.449219 6.449219,8 7,8 Z m 0,0"
       id="path4"
       style="fill:#131416;fill-opacity:1" />
  </g>
</svg>
