<?xml version="1.0" encoding="UTF-8" standalone="no"?>
<svg
   height="14"
   viewBox="0 0 14 14"
   width="14"
   version="1.1"
   id="svg4"
   sodipodi:docname="puzzle-piece-symbolic.svg"
   inkscape:version="1.2.2 (b0a8486541, 2022-12-01)"
   xmlns:inkscape="http://www.inkscape.org/namespaces/inkscape"
   xmlns:sodipodi="http://sodipodi.sourceforge.net/DTD/sodipodi-0.dtd"
   xmlns="http://www.w3.org/2000/svg"
   xmlns:svg="http://www.w3.org/2000/svg">
  <defs
     id="defs8" />
  <sodipodi:namedview
     id="namedview6"
     pagecolor="#ffffff"
     bordercolor="#000000"
     borderopacity="0.25"
     inkscape:showpageshadow="2"
     inkscape:pageopacity="0.0"
     inkscape:pagecheckerboard="0"
     inkscape:deskcolor="#d1d1d1"
     showgrid="false"
     inkscape:zoom="52.4375"
     inkscape:cx="7.9904648"
     inkscape:cy="8.0095352"
     inkscape:window-width="1920"
     inkscape:window-height="1011"
     inkscape:window-x="0"
     inkscape:window-y="32"
     inkscape:window-maximized="1"
     inkscape:current-layer="svg4" />
  <path
     d="M 5.5,0 C 4.667969,0 4,0.667969 4,1.5 V 3 H 1 C 0.445312,3 0,3.445312 0,4 V 7 H 1.5 C 2.332031,7 3,7.667969 3,8.5 3,9.332031 2.332031,10 1.5,10 H 0 v 3 c 0,0.554688 0.445312,1 1,1 H 4 V 12.5 C 4,11.667969 4.667969,11 5.5,11 6.332031,11 7,11.667969 7,12.5 V 14 h 3 c 0.554688,0 1,-0.445312 1,-1 v -3 h 1.5 C 13.332031,10 14,9.332031 14,8.5 14,7.667969 13.332031,7 12.5,7 H 11 V 4 C 11,3.445312 10.554688,3 10,3 H 7 V 1.5 C 7,0.667969 6.332031,0 5.5,0 Z m 0,0"
     fill="#222222"
     id="path2"
     style="fill:#131416;fill-opacity:1" />
</svg>
