<?xml version="1.0" encoding="UTF-8" standalone="no"?>
<svg
   height="15"
   viewBox="0 0 12 15"
   width="12"
   version="1.1"
   id="svg8"
   sodipodi:docname="rich-text-symbolic.svg"
   xmlns:inkscape="http://www.inkscape.org/namespaces/inkscape"
   xmlns:sodipodi="http://sodipodi.sourceforge.net/DTD/sodipodi-0.dtd"
   xmlns="http://www.w3.org/2000/svg"
   xmlns:svg="http://www.w3.org/2000/svg">
  <defs
     id="defs12" />
  <sodipodi:namedview
     id="namedview10"
     pagecolor="#ffffff"
     bordercolor="#000000"
     borderopacity="0.25"
     inkscape:showpageshadow="2"
     inkscape:pageopacity="0.0"
     inkscape:pagecheckerboard="0"
     inkscape:deskcolor="#d1d1d1"
     showgrid="false" />
  <g
     fill="#222222"
     id="g6"
     style="fill:#131416;fill-opacity:1"
     transform="translate(-2,-1)">
    <path
       d="m 9,2 v 5 h 4 V 6 Z M 6.5,4 C 5.675781,4 5,4.675781 5,5.5 5,6.324219 5.675781,7 6.5,7 7.324219,7 8,6.324219 8,5.5 8,4.675781 7.324219,4 6.5,4 Z m 0,1 C 6.78125,5 7,5.21875 7,5.5 7,5.78125 6.78125,6 6.5,6 6.21875,6 6,5.78125 6,5.5 6,5.21875 6.21875,5 6.5,5 Z M 5,8 v 1 h 6 V 8 Z m 0,2 v 1 h 6 v -1 z m 0,2 v 1 h 6 v -1 z m 0,0"
       id="path2"
       style="fill:#131416;fill-opacity:1" />
    <path
       d="m 2,13 c 0,1.660156 1.339844,3 3,3 h 6 c 1.660156,0 3,-1.339844 3,-3 V 7 C 14,6.09375 13.640625,5.226562 13,4.585938 L 10.414062,2 C 9.773438,1.359375 8.90625,1 8,1 H 5 C 3.339844,1 2,2.339844 2,4 Z M 5,3 H 8 C 8.375,3 8.734375,3.148438 9,3.414062 L 11.585938,6 C 11.851562,6.265625 12,6.625 12,7 v 6 c 0,0.546875 -0.453125,1 -1,1 H 5 C 4.453125,14 4,13.546875 4,13 V 4 C 4,3.453125 4.453125,3 5,3 Z m 0,0"
       id="path4"
       style="fill:#131416;fill-opacity:1" />
  </g>
</svg>
