<?xml version="1.0" encoding="UTF-8" standalone="no"?>
<svg
   height="14"
   viewBox="0 0 16 14"
   width="16"
   version="1.1"
   id="svg10"
   sodipodi:docname="dock-top-symbolic.svg"
   xmlns:inkscape="http://www.inkscape.org/namespaces/inkscape"
   xmlns:sodipodi="http://sodipodi.sourceforge.net/DTD/sodipodi-0.dtd"
   xmlns="http://www.w3.org/2000/svg"
   xmlns:svg="http://www.w3.org/2000/svg">
  <defs
     id="defs14" />
  <sodipodi:namedview
     id="namedview12"
     pagecolor="#ffffff"
     bordercolor="#000000"
     borderopacity="0.25"
     inkscape:showpageshadow="2"
     inkscape:pageopacity="0.0"
     inkscape:pagecheckerboard="0"
     inkscape:deskcolor="#d1d1d1"
     showgrid="false" />
  <g
     fill="#222222"
     id="g8"
     transform="translate(0,-1.019531)">
    <path
       d="m 3,15.019531 c -1.644531,0 -3,-1.355469 -3,-3 v -8 c 0,-1.644531 1.355469,-3 3,-3 h 10 c 1.644531,0 3,1.355469 3,3 v 8 c 0,1.644531 -1.355469,3 -3,3 z m 0,-2 h 10 c 0.570312,0 1,-0.429687 1,-1 v -8 c 0,-0.570312 -0.429688,-1 -1,-1 H 3 c -0.570312,0 -1,0.429688 -1,1 v 8 c 0,0.570313 0.429688,1 1,1 z m 0,0"
       id="path2"
       style="fill:#ffbd08;fill-opacity:1" />
    <path
       d="M 15,6.519531 H 1 v -4.5 h 14 z m 0,0"
       fill-opacity="0.35"
       id="path4"
       style="fill:#ffbd08;fill-opacity:0.4" />
    <path
       d="m 1,6.019531 v 1 h 14 v -1 z m 0,0"
       id="path6"
       style="fill:#ffbd08;fill-opacity:1" />
  </g>
</svg>
